<svg xmlns="http://www.w3.org/2000/svg" viewBox="0 0 51.68 40.37"><defs><style>.cls-1{fill:#fff;}.cls-2{fill:#001d2b;}</style></defs><g id="レイヤー_2" data-name="レイヤー 2"><g id="レイヤー_1-2" data-name="レイヤー 1"><path class="cls-1" d="M21.43,38.78c-3.11-.38-6.22-2.1-9.26-5.1-2.69-2.17-4.84-5.2-6.77-9.53A8.39,8.39,0,0,0,3.22,21a5.27,5.27,0,0,1-1.48-5.64c.08-.34.19-.67.29-1,0-.11.07-.23.11-.35a1.42,1.42,0,0,1,.25-.47l8-10.26a1.42,1.42,0,0,1,.51-.43l.22-.1.14-.06a6.09,6.09,0,0,1,4.25-1.18,5.66,5.66,0,0,1,2.85,1.24,7.64,7.64,0,0,0,4,1.57l.22,0,.14,0c1.06.23,2,.41,2.93.58A26.09,26.09,0,0,1,36.15,8.83a7.88,7.88,0,0,1,3.28,4.56A9.4,9.4,0,0,1,39.81,16l1.38,1.07c2.31,1.79,5.2,4,6.65,5.17,2.78,2.19,3.14,5.76.87,8.68a5.53,5.53,0,0,1-5.23,2.37C40.86,33,38.51,31,37,29.65l-.21-.17C34.12,33,28.88,39.7,21.43,38.78"/><path class="cls-2" d="M15.29,3a4.23,4.23,0,0,1,2.1.92,9.22,9.22,0,0,0,4.73,1.89l.23,0c5,1.09,7.79,1,13,4.23a7,7,0,0,1,2.86,6.58c2,1.59,6.73,5.21,8.7,6.76a4.47,4.47,0,0,1,.6,6.59,4,4,0,0,1-3.86,1.79c-3.23-.4-6.41-4.26-7.17-4.36a.14.14,0,0,0-.13.05c-2.12,2.72-7.34,10.7-14.74,9.78-2.57-.31-5.4-1.69-8.45-4.73a23.25,23.25,0,0,1-6.4-9,9.8,9.8,0,0,0-2.58-3.67,3.82,3.82,0,0,1-1-4.13c.11-.42.25-.84.38-1.25l8-10.26A4.25,4.25,0,0,0,12.06,4,4.71,4.71,0,0,1,15.29,3m.37-3a7.7,7.7,0,0,0-5.18,1.36h0l-.28.13a3,3,0,0,0-1,.85l-8,10.26a3,3,0,0,0-.49.94c0,.12-.07.23-.11.34-.1.32-.22.68-.32,1.07a6.8,6.8,0,0,0,2,7.16A6.9,6.9,0,0,1,4,24.76a26.7,26.7,0,0,0,7.14,10c3.26,3.21,6.65,5.05,10.08,5.47,3.76.46,7.45-.75,11-3.62a31.76,31.76,0,0,0,4.77-5,13,13,0,0,0,6.31,3.15,7,7,0,0,0,6.6-2.93c2.76-3.56,2.29-8.09-1.12-10.77-1.46-1.15-4.34-3.38-6.65-5.18l-.83-.64a9.89,9.89,0,0,0-4.35-7.72,27.27,27.27,0,0,0-11.07-4C25,3.34,24,3.16,23,2.94l-.27,0h0l-.18,0A6.21,6.21,0,0,1,19.26,1.6,7.17,7.17,0,0,0,15.66.05"/><path class="cls-2" d="M30.84,17.5l-5.12-3.15a1.55,1.55,0,0,1,1.63-2.64l5.11,3.15a1.55,1.55,0,1,1-1.62,2.64"/><path class="cls-2" d="M26.75,22.81l-4.92-3.44a1.55,1.55,0,0,1-.38-2.16h0a1.55,1.55,0,0,1,2.16-.38l4.91,3.44a1.55,1.55,0,1,1-1.77,2.54"/><path class="cls-2" d="M22.26,27.82,17.48,24.2a1.55,1.55,0,0,1,1.87-2.47l4.78,3.62a1.55,1.55,0,0,1-1.87,2.47"/></g></g></svg>