<svg xmlns="http://www.w3.org/2000/svg" viewBox="0 0 219.87 245.77"><defs><style>.cls-1{fill:#fff;}</style></defs><g id="レイヤー_2" data-name="レイヤー 2"><g id="レイヤー_8" data-name="レイヤー 8"><path class="cls-1" d="M206.66,20.54A8.7,8.7,0,0,0,201.32,16L148.51.8A18.43,18.43,0,0,0,143,0L111.33.11a7.43,7.43,0,0,0-7.43,7.43V24a3,3,0,0,1-3,3H68.08a7.44,7.44,0,0,0-7.45,7.44V50.79a3,3,0,0,1-3,3H24.81a7.45,7.45,0,0,0-7.45,7.45V77.62a3,3,0,0,1-3,3H5.16a4.62,4.62,0,0,0-4.62,5.1,114.89,114.89,0,0,0,12,38.86,109.84,109.84,0,0,0,100.74,58.58c57.42-1.88,104.07-48.46,106-105.87C219.94,58.85,214.4,36.59,206.66,20.54ZM144.41,4.59a14.49,14.49,0,0,1,4.09.58L199.57,20s0,0,0,0H165.31l-8.57-1.37-42.89-14s0,0,0,0ZM68.13,31.41h32.81a7.35,7.35,0,0,0,3.83-1.07h0l46.29,19.13a3.26,3.26,0,0,1-1.75.51H112.52a27.31,27.31,0,0,1-9.71-2.16l-34.7-16.3ZM57.68,58.24A7.39,7.39,0,0,0,61.78,57h0l41.11,22.31a3.32,3.32,0,0,1-2,.65H64.18a11.08,11.08,0,0,1-5.93-1.7l-31.92-20s0,0,0,0ZM10,105.78a104.47,104.47,0,0,1-4.49-20.7s0,0,0,0h8.86a7.42,7.42,0,0,0,5-1.93s0,0,0,0l35,26.26a3.29,3.29,0,0,1-1.8.54H15.8A6.07,6.07,0,0,1,10,105.78ZM214.34,76.15c-1.46,57.39-49.61,103.25-107,102A104.86,104.86,0,0,1,14.46,117.1a1.53,1.53,0,0,1,1.39-2.16H52.58a8.31,8.31,0,0,0,8.32-8.32V88.28A3.32,3.32,0,0,1,64.22,85h36.72a8.32,8.32,0,0,0,8.32-8.32V58.3A3.32,3.32,0,0,1,112.58,55H149.3a8.32,8.32,0,0,0,8.31-8.32V28.32A3.32,3.32,0,0,1,160.93,25h38.59a4.84,4.84,0,0,1,4.36,2.76A104.08,104.08,0,0,1,214.34,76.15Z"/><path class="cls-1" d="M.72,245l-.07-8.35s9.27,1.06,16.28,1.06c5.76,0,7-1.32,7.11-3,.23-4-5.29-3.95-8.4-4.24C12.92,230.23,0,230.23,0,220.7c0-8.19,6.48-11.64,16.72-11.64,5.67,0,10.46.1,13.6.19a4.13,4.13,0,0,1,4,4.12v.08a4.14,4.14,0,0,1-4.27,4.13c-3.43-.12-8.38-.25-12.59-.25-3,0-6.75-.38-6.75,3.16s4.92,3.57,7.79,3.85c2.57.25,16.29-.37,16.29,10.1,0,6.65-3.71,11.31-17.8,11.32A161,161,0,0,1,.72,245Z"/><path class="cls-1" d="M68.76,245.76H58v-31.3a5.4,5.4,0,0,1,5.4-5.4h0a5.4,5.4,0,0,1,5.4,5.4v31.3Z"/><path class="cls-1" d="M45.24,209h0a5.38,5.38,0,0,1,5.39,5.38v31.31H39.85V214.41A5.39,5.39,0,0,1,45.24,209Z"/><path class="cls-1" d="M70.45,225.12l11.45-14a5.56,5.56,0,0,1,4.28-2h0a4.11,4.11,0,0,1,3.21,6.69l-9.12,11.32,15.06,18.69H83.9l-13.45-16.5Z"/><path class="cls-1" d="M113,209.06a15.46,15.46,0,0,0-15.68,15.63v21.07H108l.07-10.78h10v10.78h10.73V224.69A15.5,15.5,0,0,0,113,209.06Zm5,19.54h-9.92v-3.91h0a5,5,0,0,1,9.91,0h0Z"/><path class="cls-1" d="M164.94,209.07H147.25c-5.55,0-13.23,2.74-13.23,13.54v23.16H144.8V222.61h0a3,3,0,0,1,5.91,0h0v23.16H161.5V222.61h0a2.91,2.91,0,0,1,5.8,0h0v.07c0,.06,0,.12,0,.18s0,.13,0,.19v22.72h10.77V222.61C178.09,212.5,169.58,209.07,164.94,209.07Z"/><path class="cls-1" d="M201.11,209.09c-11,0-18.76,7.76-18.76,18.33s7.76,18.33,18.76,18.33,18.76-7.76,18.76-18.33S212.11,209.09,201.11,209.09Zm0,26.17a7.84,7.84,0,1,1,7.84-7.84A7.84,7.84,0,0,1,201.11,235.26Z"/></g></g></svg>