<svg xmlns="http://www.w3.org/2000/svg" viewBox="0 0 36.04 27.39"><g id="レイヤー_2" data-name="レイヤー 2"><g id="レイヤー_1-2" data-name="レイヤー 1"><path d="M18,27.39H4.43A4.15,4.15,0,0,1,0,23V4.38A4.14,4.14,0,0,1,4.38,0H31.69A4.13,4.13,0,0,1,36,4.36V23a4.13,4.13,0,0,1-4.35,4.36ZM32.56,3l0-.15a8.23,8.23,0,0,0-1-.11H4.45c-.31,0-.61.08-1.06.13L18,15.55ZM4.79,24.6H31.22l-9-9c-.09.06-.22.17-.34.27l-2.8,2.41a1.41,1.41,0,0,1-2.09,0l-1.21-1-1.92-1.66Zm-2-2.08,8.89-8.84L2.77,6ZM33.26,6l-8.83,7.61,8.83,8.81Z"/></g></g></svg>