<svg xmlns="http://www.w3.org/2000/svg" viewBox="0 0 34.58 34.59"><defs><style>.cls-1{fill:#dde6e8;}</style></defs><g id="レイヤー_2" data-name="レイヤー 2"><g id="レイヤー_1-2" data-name="レイヤー 1"><path class="cls-1" d="M6.81,3.9a3.87,3.87,0,0,1,.61.32C8.17,4.8,8.9,5.39,9.64,6A1.33,1.33,0,0,0,11,6.2C12,5.82,12.9,5.44,13.83,5a1.34,1.34,0,0,0,.86-1.2c.09-1,.22-2,.35-3A.84.84,0,0,1,15.93,0c.92,0,1.83,0,2.75,0,.53,0,.82.32.89.89.12,1,.24,1.95.33,2.93A1.36,1.36,0,0,0,20.73,5c.93.4,1.87.78,2.81,1.16A1.38,1.38,0,0,0,25,6c.73-.6,1.47-1.18,2.21-1.76a.83.83,0,0,1,1.19,0c.67.64,1.33,1.3,2,2a.86.86,0,0,1,0,1.22c-.59.74-1.17,1.48-1.77,2.22A1.32,1.32,0,0,0,28.41,11c.37,1,.76,1.9,1.18,2.84a1.28,1.28,0,0,0,1.14.81c1,.1,2,.22,3,.35a.85.85,0,0,1,.82.91c0,.88,0,1.77,0,2.65a.87.87,0,0,1-.9,1c-1,.13-2,.25-2.93.34a1.34,1.34,0,0,0-1.17.84c-.41.94-.8,1.89-1.18,2.85A1.31,1.31,0,0,0,28.61,25c.57.73,1.15,1.45,1.73,2.18a.91.91,0,0,1-.08,1.41c-.57.58-1.15,1.16-1.73,1.73a.9.9,0,0,1-1.41.07c-.7-.55-1.4-1.1-2.08-1.66a1.44,1.44,0,0,0-1.58-.23c-.9.38-1.82.74-2.72,1.13a1.32,1.32,0,0,0-.83,1.13c-.11,1-.21,1.91-.32,2.86-.08.74-.37,1-1.13,1s-1.63,0-2.45,0a.89.89,0,0,1-1-.92c-.12-.95-.23-1.9-.32-2.86a1.4,1.4,0,0,0-1-1.26c-.84-.35-1.69-.69-2.53-1.06a1.47,1.47,0,0,0-1.68.22c-.7.58-1.4,1.14-2.11,1.69a.87.87,0,0,1-1.29-.06c-.64-.61-1.27-1.24-1.88-1.88a.85.85,0,0,1,0-1.25c.55-.7,1.09-1.4,1.66-2.08a1.51,1.51,0,0,0,.25-1.76c-.37-.82-.7-1.65-1-2.49a1.41,1.41,0,0,0-1.25-1c-.94-.09-1.88-.2-2.81-.31-.7-.08-1-.37-1-1.07S0,16.86,0,16a.93.93,0,0,1,1-1c1-.12,1.92-.22,2.89-.33A1.33,1.33,0,0,0,5,13.84c.38-.89.74-1.79,1.12-2.69a1.45,1.45,0,0,0-.24-1.61C5.32,8.84,4.76,8.12,4.2,7.4a.84.84,0,0,1,0-1.22c.64-.68,1.3-1.33,2-2A2.49,2.49,0,0,1,6.81,3.9ZM17.25,26a8.74,8.74,0,1,0-8.7-8.81A8.74,8.74,0,0,0,17.25,26Z"/></g></g></svg>