<svg xmlns="http://www.w3.org/2000/svg" viewBox="0 0 205.56 195.3"><defs><style>.cls-1{fill:#0f2329;}.cls-2{fill:#dde6e8;}</style></defs><g id="レイヤー_2" data-name="レイヤー 2"><g id="レイヤー_1-2" data-name="レイヤー 1"><path class="cls-1" d="M45.31,184.44c0-2.75-1.91-4.74-5.81-5.67-5.36-1.33-9.44-3.86-9.44-10.55,0-6.25,5.05-9.27,9.44-9.27,4.2,0,8.09,1.9,9.29,6.28a2.39,2.39,0,0,1-2.32,3h0a2.44,2.44,0,0,1-2.32-1.82c-.54-1.85-2-2.66-4.65-2.66s-4.65,1.55-4.65,4.48c0,3.32,1.42,5,4.65,5.76,5.72,1.33,10.6,3.81,10.6,10.46S45.75,195.3,39.5,195.3c-5.3,0-9.22-3-10.32-7.91a2.41,2.41,0,0,1,2.34-2.95h0a2.38,2.38,0,0,1,2.33,1.81,5.37,5.37,0,0,0,5.65,4.27C43.22,190.52,45.31,188,45.31,184.44Z"/><path class="cls-1" d="M80.38,191.69l-9.46-27.16a2.38,2.38,0,0,0-4.5,0l-9.5,27.16a2.39,2.39,0,0,0,2.26,3.17h0a2.39,2.39,0,0,0,2.25-1.59l1-2.67A2.37,2.37,0,0,1,64.64,189h8a2.39,2.39,0,0,1,2.26,1.6l.92,2.65a2.42,2.42,0,0,0,.87,1.16,2.39,2.39,0,0,0,3.64-2.73Zm-11-7.51H68A2.39,2.39,0,0,1,65.71,181L68,174.39a.66.66,0,0,1,1.25,0L71.6,181A2.39,2.39,0,0,1,69.35,184.18Z"/><path class="cls-1" d="M92.06,159.4h0a2.39,2.39,0,0,1,2.38,2.38v5A2.38,2.38,0,0,0,98.87,168l4.6-7.48a2.38,2.38,0,0,1,2-1.13h0a2.38,2.38,0,0,1,2,3.63l-7.87,12.85a2.37,2.37,0,0,0,0,2.49l7.87,12.86a2.38,2.38,0,0,1-2,3.63h0a2.38,2.38,0,0,1-2-1.13l-4.6-7.48a2.38,2.38,0,0,0-4.41,1.25v5a2.39,2.39,0,0,1-2.38,2.38h0a2.39,2.39,0,0,1-2.39-2.38v-30.7A2.39,2.39,0,0,1,92.06,159.4Z"/><path class="cls-1" d="M120.13,159.4a2.39,2.39,0,0,1,2.39,2.39V186c0,3.15,1.6,4.48,4.92,4.48s4.88-1.33,4.88-4.48V161.79a2.39,2.39,0,0,1,2.39-2.39h0a2.39,2.39,0,0,1,2.39,2.39V186c0,6.51-4.61,9.26-9.66,9.26s-9.71-2.75-9.71-9.26V161.79a2.4,2.4,0,0,1,2.4-2.39Z"/><path class="cls-1" d="M160.78,173.41l6.56-9.23a2.39,2.39,0,0,1,4.34,1.39v26.9a2.39,2.39,0,0,1-2.39,2.39h0a2.4,2.4,0,0,1-2.4-2.39V180.55a2.39,2.39,0,0,0-4.34-1.39l-1.77,2.49a2.38,2.38,0,0,1-3.9,0l-1.78-2.49a2.39,2.39,0,0,0-4.34,1.39v11.92a2.39,2.39,0,0,1-2.4,2.39h0a2.39,2.39,0,0,1-2.39-2.39v-26.9a2.4,2.4,0,0,1,4.35-1.39l6.56,9.23A2.39,2.39,0,0,0,160.78,173.41Z"/><path class="cls-1" d="M191.5,159c-7.76,0-10.95,6.7-10.95,18.18s3.19,18.17,10.95,18.17,10.95-6.69,10.95-18.17S199.21,159,191.5,159Zm0,31.57c-3.68,0-6.16-3.24-6.16-13.39s2.48-13.39,6.16-13.39,6.12,3.24,6.12,13.39S195.18,190.52,191.5,190.52Z"/><path class="cls-1" d="M91.62,16c-.84.64-1.51,1.14-2.16,1.66-3.29,2.63-6.56,5.28-9.88,7.88A1.41,1.41,0,0,0,79,27.3c.7,2.23,1.28,4.49,2,7C70.43,26.8,34.38,35.56,28,49.1c-.68-2.46-1.36-4.73-1.94-7a1.44,1.44,0,0,0-1.46-1.25C17.48,39.93,10.33,39,3.18,38.05A3.4,3.4,0,0,1,.4,36.49a2.9,2.9,0,0,1,.88-3.85Q8.13,27.1,15,21.62C22.88,15.33,30.78,9.08,38.6,2.74A11.58,11.58,0,0,1,48,.13C63.52,2.22,79.09,4.21,94.65,6.27A5.47,5.47,0,0,1,97,7.06a2.85,2.85,0,0,1,0,4.53c-.9.78-1.9,1.45-2.77,2.26a1.67,1.67,0,0,0-.41,1.25c.16,1,.55,1.88.74,2.84a3,3,0,0,0,2.18,2.71A3.36,3.36,0,0,1,98.59,25,1.5,1.5,0,0,0,99,26.76a17.63,17.63,0,0,1,3.78,7.43,1.12,1.12,0,0,1-.87,1.56L95.29,37.6a1.17,1.17,0,0,1-1.61-1,18.45,18.45,0,0,1-.57-8.45,1.56,1.56,0,0,0-.39-1.26,3.8,3.8,0,0,1-.33-5.65,1.41,1.41,0,0,0,.41-1C92.48,18.91,92.06,17.54,91.62,16ZM26.1,31.2A146.18,146.18,0,0,1,73.43,18C62.45,16,34.1,24,26.1,31.2Z"/><path class="cls-2" d="M26.1,31.2C34.1,24,62.45,16,73.43,18A146.18,146.18,0,0,0,26.1,31.2Z"/><path class="cls-1" d="M58.94,145.26c-23.42,0-35.3-19-35.3-56.61S35.52,32,58.94,32s35.31,19,35.31,56.62c0,14.35-1.8,26.14-5.33,35.05a.59.59,0,0,0,.14.63l2,2a6.6,6.6,0,0,1,0,9.34l-4.87,4.87a6.57,6.57,0,0,1-4.68,1.94h0a6.58,6.58,0,0,1-4.6-1.87.58.58,0,0,0-.42-.18.5.5,0,0,0-.27.08A31.44,31.44,0,0,1,58.94,145.26Zm0-93.1c-13.6,0-15.17,20.83-15.17,36.49,0,32.71,8.66,36.49,15.17,36.49.28,0,.55,0,.82,0a.46.46,0,0,0,.48-.35.58.58,0,0,0-.13-.67l-5.76-5.65a6.59,6.59,0,0,1-.06-9.38l5-5a6.6,6.6,0,0,1,9.31,0l3.18,3.15a.54.54,0,0,0,.4.17.62.62,0,0,0,.62-.52A112.22,112.22,0,0,0,74,88.65C74,55.94,65.4,52.16,58.94,52.16Z"/><path class="cls-2" d="M58.94,35c22.75,0,32.3,19.75,32.3,53.62,0,13.74-1.67,25.26-5.11,33.94a3.58,3.58,0,0,0,.8,3.86l2,2a3.59,3.59,0,0,1,0,5.09l-4.88,4.88a3.6,3.6,0,0,1-5.06,0,3.58,3.58,0,0,0-2.52-1,3.48,3.48,0,0,0-1.88.55,28.32,28.32,0,0,1-15.67,4.26c-22.89,0-32.3-19.74-32.3-53.61S36.05,35,58.94,35m0,93.11c.36,0,.72,0,1.07,0a3.6,3.6,0,0,0,2.19-6.16l-5.76-5.64a3.6,3.6,0,0,1,0-5.12l5-5a3.64,3.64,0,0,1,2.56-1.06,3.58,3.58,0,0,1,2.52,1l3.18,3.14a3.54,3.54,0,0,0,2.51,1,3.59,3.59,0,0,0,3.58-3A116.62,116.62,0,0,0,77,88.65c0-29.95-7.19-39.49-18-39.49S40.76,58.7,40.76,88.65s7.32,39.49,18.18,39.49m0-99.11C45.54,29,35.46,34.8,29,46.17,23.38,56.06,20.64,70,20.64,88.65s2.74,32.59,8.36,42.47c6.46,11.37,16.54,17.14,29.94,17.14A34.89,34.89,0,0,0,76.33,144a9.59,9.59,0,0,0,12-1.29l4.88-4.88a9.6,9.6,0,0,0,0-13.59l-.9-.9c3.29-9.06,5-20.71,5-34.66,0-18.67-2.75-32.57-8.4-42.48C82.44,35,72.11,29,58.94,29Zm-9.53,83.71c-1.55-5-2.65-12.53-2.65-24.09,0-33.49,9.17-33.49,12.18-33.49s12,0,12,33.49c0,4.88-.19,9.24-.57,13a9.59,9.59,0,0,0-13.28.29l-5,5a9.51,9.51,0,0,0-2.76,5.8Z"/><path class="cls-1" d="M133.21,145.26c-19.22,0-31.63-11.9-31.63-30.33V62.36c0-9.86,3.37-17.89,9.75-23.22C116.9,34.49,124.46,32,133.21,32c15.53,0,26.88,7.8,30.35,20.87a9.94,9.94,0,0,1-9.63,12.46h-.45A9.8,9.8,0,0,1,144.11,58c-.79-2.9-2.71-5.87-10.9-5.87-8.39,0-11.51,2.77-11.51,10.2v5.73a3.83,3.83,0,0,0,1.18,2.79A4,4,0,0,0,125.71,72a4.34,4.34,0,0,0,.71-.06,40.06,40.06,0,0,1,6.79-.57c19.15,0,31.52,11.91,31.52,30.33v13.21C164.73,133.36,152.36,145.26,133.21,145.26Zm0-53.74c-9.55,0-11.51,4.08-11.51,10.2v13.21c0,7.44,3.12,10.21,11.51,10.21s11.39-2.77,11.39-10.21V101.72C144.6,94.29,141.52,91.52,133.21,91.52Z"/><path class="cls-2" d="M133.21,35c12.44,0,24,5.56,27.45,18.64a6.94,6.94,0,0,1-6.73,8.69h-.46A6.76,6.76,0,0,1,147,57.24c-1.54-5.63-6-8.08-13.79-8.08-9.8,0-14.51,3.92-14.51,13.2v5.73a7,7,0,0,0,7,6.93,7,7,0,0,0,1.2-.1,37.28,37.28,0,0,1,6.3-.53c14.91,0,28.51,8.11,28.51,27.33v13.21c0,19.22-13.6,27.33-28.51,27.33s-28.64-8.11-28.64-27.33V62.36C104.57,43,118.18,35,133.21,35m0,93.11c9.81,0,14.39-3.92,14.39-13.21V101.72c0-9.15-4.58-13.2-14.39-13.2s-14.51,4-14.51,13.2v13.21c0,9.29,4.71,13.21,14.51,13.21m0-99.11c-21,0-34.64,13.08-34.64,33.33v52.57c0,13.54,5.89,21.33,10.83,25.47,6.13,5.14,14.37,7.86,23.81,7.86s17.6-2.72,23.71-7.87c4.93-4.14,10.8-11.93,10.8-25.46V101.72c0-13.53-5.87-21.32-10.8-25.46-6.11-5.15-14.31-7.87-23.71-7.87a43.28,43.28,0,0,0-7.31.62h-.19a1,1,0,0,1-1-.93V62.36c0-2.79.53-4.67,1.58-5.6s3.57-1.6,6.93-1.6c7,0,7.61,2.21,8,3.66a12.8,12.8,0,0,0,12.25,9.54h.46a12.95,12.95,0,0,0,12.54-16.22C162.62,37.67,150.19,29,133.21,29Zm0,93.11c-3.36,0-5.76-.55-6.93-1.6s-1.58-2.82-1.58-5.61V101.72c0-2.75.54-4.62,1.59-5.57s3.59-1.63,6.92-1.63c7.23,0,8.39,2.12,8.39,7.2v13.21c0,4.9-.82,7.21-8.39,7.21Z"/><path class="cls-1" d="M192.5,144a10.08,10.08,0,0,1-10.06-10.07l-.62-78.76a3.2,3.2,0,0,0-1.71-2.82,10.06,10.06,0,0,1,4.68-19h4.33a13.46,13.46,0,0,1,13.44,13.44v87.11A10.08,10.08,0,0,1,192.5,144Z"/><path class="cls-2" d="M189.12,36.34a10.44,10.44,0,0,1,10.44,10.44v87.11a7.06,7.06,0,0,1-14.12,0l-.62-78.78a6.19,6.19,0,0,0-3.31-5.45,7.07,7.07,0,0,1,3.28-13.32h4.33m0-6h-4.33A13.07,13.07,0,0,0,178.71,55a.19.19,0,0,1,.11.18l.62,78.79a13.06,13.06,0,0,0,26.12-.05V46.78a16.46,16.46,0,0,0-16.44-16.44Z"/></g></g></svg>