<svg xmlns="http://www.w3.org/2000/svg" viewBox="0 0 36.5 29.76"><g id="レイヤー_2" data-name="レイヤー 2"><g id="レイヤー_1-2" data-name="レイヤー 1"><path d="M11,23.55a9.09,9.09,0,0,1-7.18-5.26h4.3l0-.08L7.68,18a10.46,10.46,0,0,1-4.81-3,6.89,6.89,0,0,1-1.65-4.64L4.9,11.65A8.63,8.63,0,0,1,1.56,7,7.49,7.49,0,0,1,2.5,1.31,19.87,19.87,0,0,0,18.17,9.14c-.13-.53-.28-1-.35-1.51a6,6,0,0,1,1.57-4.78A7.42,7.42,0,0,1,26.07.05a6.86,6.86,0,0,1,4.32,2.26.56.56,0,0,0,.67.16l3.77-1.08.38-.09L32.63,4.54,36.5,3.9l-.34.32c-1,.85-2,1.72-3.09,2.55a.88.88,0,0,0-.38.92,14.75,14.75,0,0,1-.81,7A22.06,22.06,0,0,1,20.57,27.77,19.93,19.93,0,0,1,9,29.58a28.79,28.79,0,0,1-8.8-2.64L0,26.79A19.65,19.65,0,0,0,11,23.55Z"/></g></g></svg>